<svg id="Bear_Silhouette_Grey_Image" data-name="Bear Silhouette Grey Image" xmlns="http://www.w3.org/2000/svg" viewBox="0 0 1791.49 973.39"><defs><style>.cls-1{fill:#949494;}</style></defs><title>bear</title><path class="cls-1" d="M1099.16,1107c-8,9.23-18.8,14.36-29.31,19.79-4.1,2.12-8.88,3-13.42,4.14-7.4,1.86-14.81,3.83-22.32,5.09a142.84,142.84,0,0,1-20.64,1.92c-14.33.29-28.68.51-43-.06-9.82-.39-19.61-2-29.38-3.34-7.65-1-15.22-2.75-22.89-3.36-5.21-.42-11.14-.79-15.64,1.26-4.85,2.21-8.78,6.93-12.42,11.15-5.67,6.58-10.74,13.67-16.09,20.54-3,3.89-6,7.85-9.2,11.61a51.42,51.42,0,0,1-5.39,4.9,165.8,165.8,0,0,1-40,26.43c-6.84,3.16-13.56,6.55-20.4,9.71-1,.46-2.3.24-3.45.24-4.84,0-9.7-.3-14.5.08-7.07.56-14.08,2-21.16,2.38-12.4.75-24.87,1.78-37.22,1.12-4.26-.23-8.64-4.71-12.32-8-8.72-7.72-9.08-18.95-9.89-29.2-.75-9.35,1.9-18.62,7.34-26.91,5-7.64,9-16,13.92-23.68A83.92,83.92,0,0,1,732,1120.57c7.68-8,11.42-17.86,13.93-28.33,2.07-8.62,5.08-17.21,5.63-26,.84-13.46,7.65-23.73,14.74-34.22,4.28-6.34,7.9-13.14,12.3-19.4a149.84,149.84,0,0,1,13.9-17.51c8-8.42,16.07-16.73,27.12-21.81,6.86-3.15,12.5-8.89,18.83-13.25,6-4.14,12.2-8,18.27-12,5-3.34,9.77-7.07,14.93-10.16,13.2-7.91,21.9-20.61,33.12-30.48,10.44-9.17,7.87-19.42,7-29.9-.72-8.74-1.91-17.37-2.16-26.21-.26-9.38-3.2-18.69-5-28-.3-1.6-.69-3.18-1.18-5.41-6.83,3.94-13.42,7.94-20.22,11.56a32.8,32.8,0,0,1-9.57,3.42c-23.45,4.14-46.91,8.36-70.46,11.89-7.32,1.1-11.9,5.66-16.9,9.89-4.18,3.55-7.84,7.7-11.72,11.59-4.16,4.17-8.18,8.49-12.5,12.49-3.9,3.62-8.35,6.67-12.16,10.37-5.86,5.67-11.2,11.88-17.1,17.49-3.06,2.91-6.82,5.08-10.33,7.49-4.75,3.27-10.27,3.6-15.78,3.87a29.82,29.82,0,0,1-3,0c-16-.65-32-1-47.94-2.12-8-.55-14.63,2.94-21.51,5.75s-13.57,6.32-20.37,9.46c-12.88,6-26.32,9.3-40.62,9a74.51,74.51,0,0,0-12.82,1c-7.68,1.18-13.1-2.78-18.32-7.42-5.58-4.95-9-10.83-8.82-18.63.08-4-4-4.91-8.26-3.39-6.69,2.37-13.71,2.68-20.37-.35-3.92-1.78-8-3.7-11.21-6.44-3-2.52-4.74-6.42-7.46-9.32-2-2.16-4.47-4.6-7.16-5.34-11.59-3.19-22.06-8-29.18-18.1-3.12-4.43-4.06-9.42-4-15.07.13-11.86,6.37-20.1,14.35-27.54,3.93-3.68,8.39-6.8,12.46-10.35a53.34,53.34,0,0,0,6.06-6.33c3.71-4.52,7.73-8.88,10.75-13.84a207.6,207.6,0,0,0,10.58-20.49c2.94-6.32,4.58-13.38,8.23-19.21C512,753.1,518,748.77,525,745.85c1.39-.58,2.22-3.9,2.28-6,.26-8.46-.28-17,.29-25.39a41.23,41.23,0,0,1,3.6-13.05c4.57-10.8,9.23-21.41,17.73-30.16,9.72-10,18.28-21.12,27.44-31.67,5.64-6.5,11.56-12.75,17.15-19.29,5.19-6.06,9.81-12.64,15.24-18.48,9.28-10,16.66-21.61,27.9-30,6.08-4.53,10.83-10.94,15.81-16.83,3.25-3.84,3.82-8.3,3.25-13.66s1.9-11,2.4-16.59c1.2-13.53,9.29-22.49,20.19-28.59a85.22,85.22,0,0,1,25.92-9.69c6.65-1.19,14.41-.73,20.75,3.85,1.33,1,2.54,2.26,4.79-.19,5.75-6.26,11.64-12.79,18.69-17.32a74.23,74.23,0,0,1,23.33-9.6c15-3.39,30.34-5.59,45.61-7.8,6.22-.89,12.62-.43,18.93-.76,9.15-.48,18.46-.27,27.41-1.93,8.43-1.57,16.93-4.08,23.58-10.36,9.15-8.66,18.34-17.29,27.69-25.74,4.92-4.45,10.19-8.5,15.32-12.71,7.43-6.12,14.63-12.56,22.4-18.23,7.29-5.33,15.4-9.55,22.75-14.81a200.62,200.62,0,0,0,19.41-15.71c11.72-10.78,25.76-17,40.74-21.14,13.22-3.68,26.6-6.83,40-9.72,4.23-.91,8.82-.31,13.24-.23,6.9.14,13.83.12,20.7.75,5.79.54,11.5,1.91,17.25,2.91,6.3,1.08,12.7,1.79,18.89,3.33,7,1.74,13.76,4.28,20.66,6.36,1.71.51,3.67.29,5.3.93,5.74,2.27,11.37,4.78,17.06,7.16,4.42,1.84,8.87,3.66,13.33,5.42,4.91,1.94,9.83,3.86,14.79,5.68a37.29,37.29,0,0,0,5.86,1.67c13.56,2.6,27.16,5,40.69,7.76,6.83,1.39,13.44,3.93,20.3,5.06,9.88,1.63,19.87,2.72,29.85,3.51,5.31.43,10.7-.3,16.06-.41,4.92-.1,9.84-.07,14.75-.08l17.41,0c4.76,0,9.53-.25,14.28,0,11.83.63,23.62.54,35.33-1.36q13.85-2.23,27.65-4.78c7.73-1.42,15.42-3.07,23.14-4.55,8-1.53,16.12-2.76,24.09-4.54,6.68-1.5,13.15-4,19.84-5.36,13-2.73,26.09-5.78,39.29-7.25,10.5-1.17,20.68-4,31.14-5,5.34-.51,10.78,0,16.17,0,3.59,0,7.17-.33,10.75-.43,4.84-.14,9.69-.31,14.53-.28,6,0,11.92-.14,17.82.44,11,1.08,22.26.31,32.89,4.66,7.09,2.9,14.7,4.59,21.71,7.65,9.21,4,18,9,27.1,13.29,4.61,2.15,9.83,3.09,14.29,5.48,7,3.74,15.44,4.61,21.07,11.15,1.42,1.65,4.52,1.84,6.83,2.71,3.11,1.18,6.3,2.2,9.31,3.58,5.93,2.73,11.65,5.91,17.66,8.43,6.63,2.77,13.46,5.1,20.27,7.43a141,141,0,0,0,15,4.5c8.15,1.82,16,4.59,24,6.94,9.78,2.89,16.08,10,24,15.22,8.33,5.5,17.56,9.67,25.71,15.39a118.25,118.25,0,0,1,20.33,17.6c7.9,8.83,14.29,19,21.89,28.12,7.42,8.91,15.38,17.39,23.41,25.77,7.07,7.38,14.76,14.15,21.78,21.57,5.2,5.5,9.66,11.7,14.65,17.42,3.27,3.75,7.08,7,10.33,10.82,6.26,7.26,12,15,18.48,22,8.53,9.36,17.85,18,26.18,27.52,4.81,5.51,8.29,12.17,12.43,18.28,2.73,4,5.65,7.92,8.34,12,3.68,5.52,7.32,11.07,10.8,16.72,2.8,4.55,5.59,9.14,7.92,13.94,3.2,6.6,6.08,13.37,8.89,20.15,4.82,11.68,9.52,23.41,14.21,35.14,2.09,5.24,4,10.55,6,15.83,2.5,6.64,5.12,13.24,7.47,19.94,2.58,7.4,4.69,15,7.4,22.32,3.68,10,7.78,19.79,11.59,29.72,2.54,6.61,4.74,13.35,7.37,19.93,2.24,5.63,5.09,11,7.27,16.68a110.73,110.73,0,0,1,4.67,15c2.87,12.43,5.23,25,8.15,37.39,1.78,7.59,4.32,15,6.3,22.56,2.78,10.62,5.3,21.31,8.06,31.94,2.28,8.8,4.23,17.73,7.27,26.27s3.24,16.94,3.54,25.64c.38,10.89.75,21.86,2.49,32.57.73,4.48,4.41,8.9,7.7,12.47,7.38,8,11.43,17.41,13.57,27.81,1.17,5.68,2,11.42,3,17.12a3.82,3.82,0,0,0,1.29,2.27c4.51,3.19,5.51,8,6.1,13,.62,5.22.52,10.55,1.45,15.7,3.12,17.25,1,33.24-10,47.49-5.27,6.82-10.73,13.54-15.4,20.76s-11.22,13.2-10.4,23.9c.94,12.34-5,23.66-13.6,32.58-6.77,7-15.44,11.66-24.32,15.8-7.16,3.33-13.94,7.51-21.16,10.68a64.44,64.44,0,0,1-14.43,4.12,203.4,203.4,0,0,1-49.44,2.87c-6.36-.41-12.55-3.11-18.85-4.63a31,31,0,0,0-7.24-1.11c-8,0-15.66-.59-22.18-6.33-1.7-1.49-5-1.82-7.5-1.62-8.86.73-15.11-3.68-19.39-10.45a12.42,12.42,0,0,1-1.22-10.69c.93-2.48.78-5.35,1.22-8,2-12,9.4-20.14,20.65-22.73,6.37-1.46,12.75-2.89,19.16-4.16,2.94-.57,6.07-.33,8.92-1.13a31.41,31.41,0,0,0,9.08-3.93,104.55,104.55,0,0,0,11.28-9.14,4.53,4.53,0,0,0,1.35-3.72c-2.62-9-4.64-18.24-8.55-26.62-4.2-9-10.17-17.14-15.51-25.57q-9.82-15.53-19.9-30.88c-5.86-9-11.6-18-17.88-26.67-5.36-7.4-11.65-14.11-17.09-21.45-7.53-10.15-14.45-20.76-22-30.89-6.94-9.3-14.13-18.44-21.74-27.19-2.86-3.29-7.22-5.27-10.87-7.87-4.76-3.38-9.28-7.16-14.3-10.08a206.88,206.88,0,0,0-21.07-10.78,153.26,153.26,0,0,0-22.3-8.19c-9.42-2.48-19.08-5-27.61,3.42-3.65,3.61-8.76,5.68-12.9,8.86s-7.68,6.91-11.66,10.2c-4.38,3.64-9.09,6.88-13.4,10.59-6,5.15-11.7,10.57-17.5,15.9-2.68,2.46-5.47,4.83-7.88,7.53-3.38,3.77-6.61,7.7-9.62,11.77-9.14,12.34-18.35,24.63-27.09,37.25-4,5.81-6.56,12.64-10.55,18.48-6.4,9.35-12.53,19.17-20.49,27.07-6.54,6.49-9.5,13.64-11.75,22-1.77,6.6-5.13,12.75-7.36,19.25-3.21,9.35-6.31,18.77-9,28.3-3.31,11.94-6.58,23.91-15.55,33-6.53,6.63-12.64,14.32-22.09,16.86a173.94,173.94,0,0,1-27.55,5.37c-10.87,1.1-21.87.92-32.81,1.16-18.27.4-36.58.17-54.82,1.18-15.58.86-31.09,3.09-46.63,4.76-2.47.27-4,0-4.25-3.1-.21-2.26-1.1-3.38-4.76-3.24-13.29.52-26.63-.23-39.94-.77-1.58-.06-3.13-1.7-4.64-2.7-5.66-3.76-11.63-7.16-16.87-11.44-6.1-5-8-17.94-4.16-24.27.8-1.32,2.6-2,3.53-3.29,4.46-6.17,8.64-12.56,13.19-18.67,6-8,14.38-11.44,24.27-11.44,3,0,6-.11,9,0a15.09,15.09,0,0,0,10.3-3.36c3-2.19,7.78-2.59,11.75-2.5,5.92.13,11-.22,14.3-6.13,1-1.85,3.91-2.66,4.93-4.51a37.34,37.34,0,0,0,3.06-9c1.45-5.9,2.17-12,4.09-17.75,3.42-10.16,7.59-20,11.31-30.11,2.93-7.93,5.43-15.63,5.53-24.6.13-11,3.85-22,5.75-33,.72-4.15.66-8.43,1-12.64.38-4.85,1-9.7,1.15-14.56.17-6,0-12.07-.14-18.1-.08-4.9-.23-9.79-.35-14.68v-1.22c-.79-4.85-1.37-9.75-2.43-14.55-1.1-5-8.14-7-13.41-4.85-5.45,2.26-11.22,3.72-16.85,5.52-4.63,1.49-9.25,3-13.9,4.43-3,.92-6.09,2.35-9.16,2.41-13.71.27-27.45.57-41.13-.12-4.22-.21-8.25-3.58-12.43-5.35-5.45-2.31-11-4.41-16.45-6.72s-10.68-4.75-16.06-7c-2.15-.92-4.41-1.6-6.5-2.34.13,12.47,3,24.3-.33,36.5-1.93,7.16-1,15.05-1.87,22.55a94.87,94.87,0,0,1-3.34,15.09c-2.93,10.14-5.87,20.29-9.36,30.25-1.56,4.44-4.31,8.51-6.79,12.58-8.35,13.74-16.38,27.7-25.39,41-6.81,10-15,19.11-22.45,28.73-4.78,6.19-9.21,12.66-13.92,18.9-4.57,6.06-9.47,11.87-13.91,18s-9.42,12.29-12.61,19.15c-4.22,9.07-7.45,18.36-7.74,29-.29,11-1.71,22.47-9,32.07-2.59,3.43-6,5.66-8.83,8.55s-5.61,6.07-9.75,7.31c-5.73,1.72-11.47,3.45-17.26,5a67.56,67.56,0,0,1-7.81,1c-9.37,1.29-18.11-2.36-27.19-3.41-7.18-.84-14.33-1.95-21.53-2.54-17.76-1.46-35.53-2.73-53.3-4-3.48-.24-7-.13-10.49-.06-18.56.39-36.86-1.7-55.15-4.74-7.39-1.22-15.24.48-22.72-.45-9.63-1.21-18.92-10.92-16.94-22.51,1.07-6.3,2.26-12.45,7.15-16.46,4.53-3.71,10-6.47,15.31-9,4.56-2.12,9.65-3.08,14.36-4.9,7.14-2.77,14.58-3.27,22.08-3.37,6-.08,12.1.19,18.16.28,8.09.11,16.2.53,24.27.14a16.28,16.28,0,0,0,11.25-4.78c4.73-4.86,11-8.69,14.42-14.27,3.62-5.83,5.58-13.09,6.67-20s.77-14.3.09-21.39a160,160,0,0,0-4-22.86c-3.69-14.92-7.62-29.79-12-44.53-1.79-6.06-4.9-11.72-7.41-17.56l-4.44,6.5-.81.81q-1.59,2.1-3.19,4.19l-.81.81c-5.06,4.7-10.16,9.35-15.15,14.11a31.11,31.11,0,0,0-3,4.08Z" transform="translate(-445.71 -323.83)"/></svg>